<?xml version="1.0" encoding="UTF-8"?>
<svg xmlns="http://www.w3.org/2000/svg" version="1.1" viewBox="0 0 5000 5000">
  <!-- Generator: Adobe Illustrator 29.8.1, SVG Export Plug-In . SVG Version: 2.1.1 Build 2)  -->
  <defs>
    <style>
      .st0 {
        stroke-linejoin: round;
      }

      .st0, .st1 {
        fill: none;
        stroke: #64ffda;
        stroke-linecap: round;
        stroke-width: 215px;
      }

      .st1, .st2 {
        stroke-miterlimit: 10;
      }

      .st3 {
        display: none;
      }

      .st2 {
        fill: #89d0c2;
        stroke: #89d0c2;
        stroke-width: 25px;
      }
    </style>
  </defs>
  <g id="Layer_1" class="st3">
    <g id="UjAd65">
      <g>
        <path class="st2" d="M3635.57,1563.48c-15.55-11.56-176.76,73.47-180.83,117.24-4.4,47.31,84.16,251.76,112.38,303.13,357.33,650.43,1309.06,343.12,1276.22-392.86-30.43-681.9-755.6-1258.77-1355.99-1456.88C1471.95-530.94-428.23,1391.53,323.88,3389.31c632.05,1678.87,2821.81,2161.66,4098.71,890.91,49.23-48.99,299.17-341.01,310.02-385.82,14.93-61.69-113.84-115.96-166.82-132.32-816.82,1238.5-2590.92,1382.7-3598.05,281.44C-329.3,2625.26,621.1,330.14,2527.46,211.15c741.41-46.28,1774.76,364.72,2040.56,1113.91,140.3,395.44-3.25,853.17-488.69,795.45-277.07-32.95-382.13-323.27-443.77-557.03h.01ZM2770.63,1797.91v-441.81c0-76.45,104.46-166.8,179.58-181.81,131.48-26.27,221.04,67.91,278.42,64.86,27.81-1.48,152.68-66.45,165.09-90.13,25.56-48.8-124.39-133.12-159.97-148.06-216.39-90.9-520.69-64.72-628.49,171.65-12.41,27.22-50.91,144.78-50.91,165.46v459.85l-162.53,10.36c5.62,29.4-6.75,163.08.22,170.06,7,7,162.3-17.33,162.3,26.96v1938.57h216.29v-1965.62h306.41v-180.33h-306.41Z"/>
        <path class="st2" d="M3635.57,1563.48c61.64,233.77,166.7,524.09,443.77,557.03,485.44,57.72,628.99-400,488.69-795.45-265.8-749.19-1299.15-1160.19-2040.56-1113.91C621.1,330.14-329.3,2625.26,967.73,4043.52c1007.13,1101.26,2781.23,957.06,3598.05-281.44,52.97,16.36,181.75,70.63,166.82,132.32-10.85,44.82-260.79,336.84-310.02,385.82-1276.89,1270.75-3466.65,787.96-4098.71-890.91C-428.23,1391.53,1471.95-530.94,3487.34,134.1c600.39,198.12,1325.56,774.99,1355.99,1456.88,32.84,735.98-918.89,1043.29-1276.22,392.86-28.22-51.36-116.78-255.81-112.38-303.13,4.07-43.77,165.28-128.8,180.83-117.24h0Z"/>
        <path class="st2" d="M2770.63,1797.91h306.41v180.33h-306.41v1965.62h-216.29v-1938.57c0-44.29-155.31-19.97-162.3-26.96s5.4-140.65-.22-170.06l162.53-10.36v-459.85c0-20.68,38.5-138.25,50.91-165.46,107.8-236.37,412.1-262.55,628.49-171.65,35.58,14.95,185.53,99.26,159.97,148.06-12.41,23.69-137.27,88.66-165.09,90.13-57.38,3.05-146.94-91.13-278.42-64.86-75.11,15.01-179.58,105.36-179.58,181.81v441.81h0Z"/>
      </g>
    </g>
  </g>
  <g id="Layer_3">
    <g>
      <path class="st0" d="M3478.04,1656.98c24.61,576.33,824.61,736.33,1112.16,356.25,357.08-472-9.89-1015.15-351.52-1340.24-192.22-182.91-398.16-296.98-624.84-385.83-247.34-96.95-508.83-153.14-774.18-165.97-1.43-.07-2.86-.14-4.29-.2-488.92-22.37-979.22,97.29-1400,334.27-283.88,163.73-533.23,378.99-731,633.29-422.62,540.82-586.55,1265.35-427,1934.17,168.9,727.25,708.75,1341.6,1388,1639.9,797.87,355.49,1767.75,274.06,2493-213.32,240.62-165.27,456.45-366.12,624.3-604.95"/>
      <path class="st1" d="M2599.09,3951.53V1434.48c0-230.89,209.16-406.8,436.15-364.55,77.87,14.49,163.75,53.73,255.59,131.05"/>
      <line class="st1" x1="2271.98" y1="1881.88" x2="3035.41" y2="1881.88"/>
    </g>
  </g>
</svg>