<?xml version="1.0" encoding="UTF-8"?>
<svg id="Layer_1" data-name="Layer 1" xmlns="http://www.w3.org/2000/svg" viewBox="0 0 4780.33 5025">
  <defs>
    <style>
      .cls-1 {
        stroke-linejoin: round;
      }

      .cls-1, .cls-2 {
        fill: none;
        stroke: #64ffda;
        stroke-linecap: round;
        stroke-width: 215px;
      }

      .cls-2 {
        stroke-miterlimit: 10;
      }
    </style>
  </defs>
  <g id="Layer_3" data-name="Layer 3">
    <g>
      <path class="cls-1" d="M3368.2,1669.48c24.61,576.33,824.61,736.33,1112.16,356.25,325.02-429.62,50.17-918.2-259.44-1247.62-82.2-81.64-167.21-161.49-260.93-229.96-142.83-106.27-295.09-180.81-456-248.49-247.34-96.95-508.83-153.14-774.18-165.97-1.43-.07-2.86-.14-4.29-.2-488.92-22.37-979.22,97.29-1400,334.27-283.88,163.73-533.23,378.99-731,633.29C171.91,1641.87,7.98,2366.4,167.53,3035.22c168.9,727.25,708.75,1341.6,1388,1639.9,797.87,355.49,1767.75,274.06,2493-213.32,240.62-165.27,456.45-366.12,624.3-604.95"/>
      <path class="cls-2" d="M2489.25,3964.03V1446.98c0-230.89,209.16-406.8,436.15-364.55,77.87,14.49,163.75,53.73,255.59,131.05"/>
      <line class="cls-2" x1="2162.14" y1="1894.38" x2="2925.57" y2="1894.38"/>
    </g>
  </g>
</svg>