<?xml version="1.0" encoding="UTF-8"?>
<svg id="Layer_1" xmlns="http://www.w3.org/2000/svg" version="1.1" viewBox="0 0 100 100">
  <!-- Generator: Adobe Illustrator 29.8.1, SVG Export Plug-In . SVG Version: 2.1.1 Build 2)  -->
  <defs>
    <style>
      .st0 {
        fill: #cfcdcd;
        fill-rule: evenodd;
      }

      .st1, .st2, .st3 {
        stroke-linecap: round;
        stroke-linejoin: round;
      }

      .st1, .st2, .st3, .st4 {
        fill: none;
        stroke: #cfcdcd;
      }

      .st1, .st4 {
        stroke-width: 7px;
      }

      .st2 {
        stroke-width: 5px;
      }

      .st3 {
        stroke-width: 3px;
      }

      .st4 {
        stroke-miterlimit: 33.66;
      }
    </style>
  </defs>
  <g id="Light-Logo">
    <g id="Logo">
      <g id="Icon">
        <g>
          <path class="st0" d="M91.74,37.88c1.23,5.96,1.11,11.85.1,17.49-1.03,5.73-3.11,11.14-6.08,16.04-1.18,1.95-2.48,3.83-3.92,5.62-1.43,1.77-2.97,3.46-4.64,5.04-4.9,4.63-10.84,8.32-17.74,10.42-5.45,1.71-10.98,2.36-16.36,1.99-5.67-.39-11.15-1.82-16.21-4.19l-.49.95c5.04,2.88,10.6,4.81,16.44,5.69,5.72.86,11.67.69,17.65-.64,7.76-1.81,14.67-5.36,20.32-10.23,1.96-1.68,3.75-3.54,5.36-5.53,1.62-2,3.08-4.14,4.32-6.39,3.07-5.57,5.03-11.78,5.58-18.21.52-6.12-.23-12.42-2.28-18.61l-2.06.55h0Z"/>
          <path class="st0" d="M13.36,79.15c-2.26-2.47-4.28-5.21-5.95-8.2-1.63-2.92-2.93-6.08-3.9-9.42-.37-1.67-.65-3.33-.82-4.99-.68-6.81.43-13.42,2.58-19.58,1.16-3.31,2.7-6.43,4.47-9.42,2.35-3.98,5.14-7.71,8.52-10.94,4.97-4.74,11-8.52,18-10.68,5.7-1.75,11.48-2.41,17.08-1.88,3.89.36,7.71,1.21,11.29,2.63,4.06,1.61,7.79,3.95,11.14,6.72,3.31,2.72,6.19,5.98,8.61,9.59.32.48.53,1.03.93,1.44.31.32.65.45,1.02.7l1.44-.92c-.09-.46-.08-.84-.27-1.26-.25-.55-.72-.97-1.1-1.44-3.96-4.98-8.85-9.02-14.31-12.06-2.33-1.3-4.76-2.4-7.24-3.34-2.75-1.05-5.58-1.91-8.49-2.52-6.64-1.39-13.66-1.49-20.71.12-7.64,1.75-14.46,5.21-20.04,9.98-3.88,3.32-7.23,7.23-9.72,11.64-1.87,3.31-3.24,6.89-4.15,10.6-1.63,6.67-1.65,13.74-.18,20.78.35,1.67.75,3.34,1.28,4.99.85,3.44,2.08,6.7,3.58,9.75,1.56,3.18,3.43,6.13,5.6,8.83l1.31-1.12h0Z"/>
        </g>
        <g>
          <path class="st3" d="M83.65,28.98c-.57,3.78,2.06,7.36,5.83,7.94,1.99.31,3.93-.29,5.4-1.46,1.32-1.06,2.27-2.58,2.53-4.37.57-3.78-2.06-7.36-5.83-7.94s-7.36,2.06-7.94,5.83h0Z"/>
          <path class="st0" d="M75.55,44.33s1.22-1.14,2.73-2.62c2.67-2.62,6.25-6.28,6.25-6.28l-1.18-1.38s-4.18,2.97-7.19,5.19c-1.7,1.27-3.02,2.3-3.02,2.3l2.4,2.8h0Z"/>
        </g>
        <g id="Padlock">
          <g>
            <path class="st4" d="M41.77,77.53h26.36c1.47,0,2.66-1.2,2.66-2.66v-26.47c0-1.47-1.2-2.66-2.66-2.66H28.92c-1.47,0-2.66,1.2-2.66,2.66v15.65"/>
            <path class="st1" d="M35.8,45.73v-12.72c0-6.98,5.74-12.72,12.72-12.72s12.72,5.74,12.72,12.72v12.72"/>
          </g>
        </g>
        <g>
          <path class="st2" d="M33.69,82c.25-1.85,0-3.66-.62-5.29-1.4-3.63-4.69-6.43-8.79-6.98-5.95-.78-11.49,3.47-12.27,9.42-.78,5.95,3.47,11.49,9.42,12.27,5.95.78,11.49-3.47,12.27-9.42h0Z"/>
          <path class="st0" d="M45.6,60.36s-6.71,4-11.53,7.12c-2.73,1.76-4.8,3.25-4.8,3.25l4.29,5.47s1.93-1.65,4.3-3.88c4.18-3.93,9.69-9.48,9.69-9.48l-1.93-2.46h0Z"/>
        </g>
      </g>
    </g>
  </g>
</svg>