<?xml version="1.0" encoding="UTF-8"?>
<svg id="Layer_1" xmlns="http://www.w3.org/2000/svg" version="1.1" viewBox="0 0 128 95.94">
  <!-- Generator: Adobe Illustrator 29.5.1, SVG Export Plug-In . SVG Version: 2.1.0 Build 141)  -->
  <defs>
    <style>
      .st0 {
        fill: #cfcdcd;
        fill-rule: evenodd;
      }

      .st1, .st2, .st3 {
        stroke-linecap: round;
        stroke-linejoin: round;
      }

      .st1, .st2, .st3, .st4 {
        fill: none;
        stroke: #cfcdcd;
      }

      .st1, .st4 {
        stroke-width: 7px;
      }

      .st2 {
        stroke-width: 5px;
      }

      .st3 {
        stroke-width: 3px;
      }

      .st4 {
        stroke-miterlimit: 33.66;
      }
    </style>
  </defs>
  <g id="Light-Logo">
    <g id="Logo">
      <g id="Icon">
        <g>
          <path class="st0" d="M107.18,35.73c1.24,6.02,1.12,11.97.1,17.67-1.04,5.79-3.14,11.26-6.14,16.21-1.19,1.97-2.51,3.87-3.96,5.68-1.44,1.79-3,3.5-4.69,5.09-4.95,4.68-10.95,8.41-17.92,10.53-5.51,1.73-11.09,2.38-16.53,2.01-5.73-.39-11.27-1.84-16.38-4.23l-.5.96c5.09,2.91,10.71,4.86,16.61,5.75,5.78.87,11.79.7,17.83-.65,7.84-1.83,14.82-5.42,20.53-10.34,1.98-1.7,3.79-3.58,5.42-5.59,1.64-2.02,3.11-4.18,4.36-6.46,3.1-5.63,5.08-11.9,5.64-18.4.53-6.18-.23-12.55-2.3-18.8l-2.08.56h.01Z"/>
          <path class="st0" d="M27.98,77.43c-2.28-2.5-4.32-5.26-6.01-8.29-1.65-2.95-2.96-6.14-3.94-9.52-.37-1.69-.66-3.36-.83-5.04-.69-6.88.43-13.56,2.61-19.78,1.17-3.34,2.73-6.5,4.52-9.52,2.37-4.02,5.19-7.79,8.61-11.05,5.02-4.79,11.11-8.61,18.19-10.79,5.76-1.77,11.6-2.43,17.26-1.9,3.93.36,7.79,1.22,11.41,2.66,4.1,1.63,7.87,3.99,11.26,6.79,3.34,2.75,6.25,6.04,8.7,9.69.32.48.54,1.04.94,1.46.31.32.66.45,1.03.71l1.46-.93c-.09-.46-.08-.85-.27-1.27-.25-.56-.73-.98-1.11-1.45-4-5.03-8.94-9.11-14.46-12.19-2.35-1.31-4.81-2.42-7.32-3.37-2.78-1.06-5.64-1.93-8.58-2.55-6.71-1.4-13.8-1.51-20.93.12-7.72,1.77-14.61,5.26-20.25,10.08-3.92,3.35-7.31,7.31-9.82,11.76-1.89,3.34-3.27,6.96-4.19,10.71-1.65,6.74-1.67,13.88-.18,21,.35,1.69.76,3.37,1.29,5.04.86,3.48,2.1,6.77,3.62,9.85,1.58,3.21,3.47,6.19,5.66,8.92l1.32-1.13h0Z"/>
        </g>
        <g>
          <path class="st3" d="M99.01,26.74c-.58,3.82,2.08,7.44,5.89,8.02,2.01.31,3.97-.29,5.46-1.48,1.33-1.07,2.29-2.61,2.56-4.42.58-3.82-2.08-7.44-5.89-8.02s-7.44,2.08-8.02,5.89h0Z"/>
          <path class="st0" d="M90.82,42.25s1.23-1.15,2.76-2.65c2.7-2.65,6.31-6.35,6.31-6.35l-1.19-1.39s-4.22,3-7.26,5.24c-1.72,1.28-3.05,2.32-3.05,2.32l2.42,2.83h.01Z"/>
        </g>
        <g id="Padlock">
          <g>
            <path class="st4" d="M56.69,75.79h26.63c1.49,0,2.69-1.21,2.69-2.69v-26.75c0-1.49-1.21-2.69-2.69-2.69h-39.61c-1.49,0-2.69,1.21-2.69,2.69v15.81"/>
            <path class="st1" d="M50.66,43.66v-12.85c0-7.05,5.8-12.85,12.85-12.85s12.85,5.8,12.85,12.85v12.85"/>
          </g>
        </g>
        <g>
          <path class="st2" d="M48.53,80.31c.25-1.87,0-3.7-.63-5.35-1.41-3.67-4.74-6.5-8.88-7.05-6.01-.79-11.61,3.51-12.4,9.52-.79,6.01,3.51,11.61,9.52,12.4s11.61-3.51,12.4-9.52h0Z"/>
          <path class="st0" d="M60.56,58.44s-6.78,4.04-11.65,7.19c-2.76,1.78-4.85,3.28-4.85,3.28l4.33,5.53s1.95-1.67,4.34-3.92c4.22-3.97,9.79-9.58,9.79-9.58l-1.95-2.49h-.01Z"/>
        </g>
      </g>
    </g>
  </g>
</svg>