<?xml version="1.0" encoding="UTF-8"?>
<svg id="Layer_1" xmlns="http://www.w3.org/2000/svg" version="1.1" viewBox="0 0 128 100">
  <!-- Generator: Adobe Illustrator 29.5.1, SVG Export Plug-In . SVG Version: 2.1.0 Build 141)  -->
  <defs>
    <style>
      .st0 {
        fill: #cfcdcd;
      }
    </style>
  </defs>
  <path class="st0" d="M14,79.16l18.48-47.27c2.6-6.67,9.02-11.05,16.17-11.05h11.14l-18.48,47.27c-2.6,6.66-9.02,11.05-16.18,11.05h-11.13Z"/>
  <path class="st0" d="M41.1,79.16l18.48-47.27c2.6-6.67,9.02-11.05,16.18-11.05h11.14l-18.48,47.27c-2.6,6.66-9.02,11.05-16.18,11.05h-11.14Z"/>
  <path class="st0" d="M68.21,79.16l18.48-47.27c2.6-6.67,9.02-11.05,16.17-11.05h11.14l-18.48,47.27c-2.6,6.66-9.02,11.05-16.18,11.05h-11.14,0Z"/>
</svg>