<?xml version="1.0" encoding="UTF-8"?>
<svg id="Layer_1" xmlns="http://www.w3.org/2000/svg" version="1.1" viewBox="0 0 125.7 128">
  <!-- Generator: Adobe Illustrator 29.8.1, SVG Export Plug-In . SVG Version: 2.1.1 Build 2)  -->
  <defs>
    <style>
      .st0 {
        fill: #cfcdcd;
      }
    </style>
  </defs>
  <path class="st0" d="M61.83,0c-11.02.14-21.86,3.83-30.93,10.04C12.75,18.68.41,37.98,0,58.06c.24,6.24-.43,12.52.6,18.73,2.66,17.79,14.56,33.9,30.89,41.5,16.57,11.68,39.68,12.93,57.45,3.19,4.2-2.63,8.65-4.81,12.79-7.55,16.03-10.88,25.51-30.63,23.75-49.95,1.83-20.22-8.69-40.91-26.08-51.38-3.47-1.97-6.93-3.9-10.33-5.99C80.75,2.14,71.28-.17,61.83,0ZM61.94,3.86c3.21-.04,6.43.18,9.59.73-4.1-.22-8.14,1.23-12.2.27-1.58-.24-3.98-.2-5.06-.3,2.53-.41,5.09-.64,7.66-.69ZM51.92,8.53c-5.67,2.42-10.88,5.92-15.17,10.35-5.95,1.46-11.73,4.36-16.51,7.93,3.66-5.57,8.32-10.69,14.06-14.12,5.57-2.41,11.55-3.92,17.62-4.15ZM73.73,8.53c6.63.36,13.4,1.85,19.22,5.09,4.95,3.59,9.19,8.07,12.48,13.22-4.94-3.82-10.75-6.4-16.68-8.11-4.27-4.36-9.42-7.8-15.03-10.2ZM62.83,9.28c6.9,1.22,13.49,4.16,19.03,8.44-6.47-.54-13.11.47-19.03,3.15-5.92-2.69-12.56-3.69-19.02-3.15,5.54-4.28,12.14-7.22,19.03-8.44h0ZM46.46,21.42c4.01-.01,8.06.5,11.86,1.83-4.71,2.73-8.01,7.12-11.84,10.85-3.01,1.98-6.88,1.76-10.38,3.05-2.19.67-4.32,1.52-6.34,2.59,1.34-6.49,4.53-12.83,9.25-17.42,2.44-.57,4.95-.8,7.45-.9ZM78.28,21.42c2.94.15,6.23.03,8.86,1.25,4.33,4.74,7.57,10.85,8.71,17.04-4.4-2.42-9.35-3.41-14.2-4.43-2.15-.45-4.17-2.66-5.67-4.51-2.52-2.87-5.47-5.51-8.62-7.53,3.49-1.23,7.23-1.75,10.92-1.82h0ZM32.23,24.4c-3.77,5.34-6.03,11.73-6.88,18.12-5.23,3.77-9.37,9-12.14,14.83-.9-6.99-.23-14.29,2.33-20.86,4.52-5.26,10.27-9.47,16.69-12.08h0ZM93.42,24.4c6.49,2.68,12.43,6.92,16.86,12.37,2.34,6.59,3.09,13.64,2.16,20.58-2.73-5.96-7.18-11.11-12.25-15.06-.69-6.4-3.11-12.59-6.77-17.88h0ZM62.81,25.12c5.44,2.53,9.34,7.27,13.35,11.5,2.83,2.55,5.78,2.57,9.44,3.49,3.86.81,7.62,2.31,10.93,4.48.5,6.06-1.69,11.75-3.34,17.43-.93,5.27,2.62,9.99,3.01,15.18.14,2.07.79,4.55.07,6.41-4.94,3.4-10.91,4.29-16.58,5.73-4.97,1.83-7.28,7.18-11.53,10.14-1.74,1.2-3.62,2.97-5.62,3.28-5.35-2.54-9.09-7.22-13.08-11.38-3.91-3.42-9.63-2.76-14.2-4.86-2.11-.85-4.45-1.76-6.13-3.21-.5-6.09,1.8-11.79,3.38-17.51.73-5.19-2.6-9.82-3.07-14.92-.3-2.08-.4-4.19-.31-6.29,4.84-3.38,10.91-4.51,16.37-5.7,2.31-.6,5-2.91,6.74-5.18,2.99-3.46,6.47-6.5,10.57-8.58ZM15.73,26.77c-2.29,3.56-3.13,7.88-6.09,10.99-.8.91-2.47,3.97-2.52,3.81,2.02-5.38,4.93-10.39,8.61-14.81h0ZM109.92,26.77c3.75,4.47,6.74,9.72,8.73,15.12-1.85-3.72-5.15-6.5-6.37-10.52-.71-1.57-1.47-3.12-2.36-4.6h0ZM9.31,45.71c-.77,6.15-.25,12.44,1.36,18.4-1.71,5.88-2.07,12.12-1.37,18.18-2.98-5.92-5.1-12.52-5.19-19.18.66-6.04,2.37-12.01,5.2-17.4ZM116.34,45.71c2.98,5.86,4.98,12.37,5.23,18.96-.66,6.12-2.36,12.16-5.23,17.62.7-6.09.34-12.35-1.39-18.25,1.69-5.94,2.11-12.21,1.38-18.33h0ZM25.28,47.48c-.07,5.32,2.2,10.83,3.42,15.53.32,3.97-2.17,7.54-2.66,11.44-.43,2.01-.69,4.05-.77,6.1-4.95-4.39-8.55-10.2-10.55-16.5,1.94-6.34,5.6-12.17,10.56-16.57ZM100.37,47.48c4.93,4.46,8.87,10.36,10.49,16.79-2.01,6.22-5.59,11.96-10.49,16.29,0-5.41-2.07-10.43-3.42-15.54-.4-3.36,1.77-6.72,2.4-10.24.59-2.39.97-4.84,1.03-7.3ZM13.21,70.7c2.78,5.87,6.99,11.1,12.25,14.92.56,6.44,3.27,12.84,6.71,18.01-6.53-2.77-12.64-7-16.94-12.65-2.17-6.51-2.97-13.47-2.02-20.28ZM112.44,70.7c.88,7.03.29,14.46-2.45,20.99-4.51,5.2-10.21,9.35-16.58,11.96,3.67-5.35,6.16-11.57,6.78-18.04,5.28-3.81,9.46-9.05,12.25-14.91ZM7,86.15c1.77,3.63,5.07,6.31,6.25,10.22.69,1.66,1.56,3.23,2.42,4.81-3.73-4.46-6.63-9.58-8.66-15.03ZM118.65,86.15c-2.03,5.44-4.93,10.57-8.66,15.03,1.82-2.76,2.58-6.12,4.43-8.79,1.53-1.99,3.02-4.03,4.23-6.24h0ZM29.75,88.27c4.68,2.72,10.07,3.4,15.18,4.81,3.57,1.68,5.62,5.9,8.89,8.33,1.4,1.26,2.92,2.4,4.53,3.39-6.29,2.1-13.26,2.41-19.65.79-4.43-4.83-7.67-10.87-8.95-17.31ZM95.9,88.27c-1.29,6.5-4.56,12.55-9.04,17.41-6.42,1.42-13.39,1.24-19.53-.91,4.66-2.67,7.93-6.99,11.66-10.71,3.06-2.17,7.57-1.92,11.16-3.38,1.99-.63,3.91-1.44,5.75-2.42ZM20.16,101.14c4.91,3.79,10.63,6.51,16.63,8.04,4.25,4.47,9.51,7.9,15.15,10.35-6.73-.45-13.65-1.85-19.51-5.28-4.83-3.6-9.05-8.02-12.28-13.11ZM105.49,101.14c-3.69,5.6-8.37,10.8-14.17,14.22-5.57,2.45-11.54,3.86-17.62,4.16,5.67-2.44,10.91-5.93,15.21-10.36,5.98-1.54,11.69-4.26,16.58-8.03ZM62.81,107.19c5.93,2.62,12.54,3.65,19.01,3.14-5.63,4.27-12.36,7.48-19.38,8.36-6.74-1.29-13.2-4.17-18.61-8.36,6.46.5,13.05-.5,18.98-3.14h0ZM62.83,122.7c2.82.49,5.69.68,8.55.74-5.66.98-11.45.98-17.11,0,2.87-.05,5.73-.25,8.55-.74Z"/>
</svg>