<?xml version="1.0" encoding="UTF-8"?>
<svg id="Capa_1" xmlns="http://www.w3.org/2000/svg" version="1.1" viewBox="0 0 100 100">
  <!-- Generator: Adobe Illustrator 29.8.1, SVG Export Plug-In . SVG Version: 2.1.1 Build 2)  -->
  <path d="M8.21,83.73c1.92,3.32,6.16,4.47,9.49,2.55,0,0,0,0,0,0l1.03-.59c1.94,1.66,4.18,2.95,6.59,3.81v1.19c0,3.84,3.11,6.95,6.95,6.95s6.95-3.11,6.95-6.95v-1.19c2.41-.85,4.65-2.15,6.59-3.81l1.03.6c3.33,1.92,7.58.78,9.49-2.55,1.92-3.33.78-7.58-2.55-9.49h0l-1.03-.59c.46-2.52.46-5.1,0-7.62l1.03-.59c3.33-1.92,4.47-6.17,2.55-9.49-1.92-3.33-6.17-4.47-9.49-2.55l-1.03.59c-1.95-1.66-4.18-2.95-6.6-3.8v-1.19c0-3.84-3.11-6.95-6.95-6.95s-6.95,3.11-6.95,6.95v1.19c-2.41.85-4.65,2.15-6.59,3.81l-1.03-.6c-3.33-1.92-7.58-.78-9.49,2.55-1.92,3.33-.78,7.58,2.55,9.49h0l1.03.59c-.46,2.52-.46,5.1,0,7.62l-1.03.59c-3.32,1.92-4.45,6.17-2.54,9.49h0ZM32.28,60.58c5.12,0,9.26,4.15,9.26,9.26s-4.15,9.26-9.26,9.26-9.26-4.15-9.26-9.26,4.15-9.26,9.26-9.26Z"/>
  <path d="M43.66,44.05c1.92,3.32,6.16,4.47,9.49,2.55,0,0,0,0,0,0l1.03-.59c1.94,1.66,4.18,2.95,6.59,3.81v1.19c0,3.84,3.11,6.95,6.95,6.95s6.95-3.11,6.95-6.95v-1.19c2.41-.85,4.65-2.15,6.59-3.81l1.03.6c3.33,1.92,7.58.78,9.49-2.55,1.92-3.33.78-7.58-2.55-9.49h0l-1.03-.59c.46-2.52.46-5.1,0-7.62l1.03-.59c3.33-1.92,4.47-6.17,2.55-9.49-1.92-3.33-6.17-4.47-9.49-2.55l-1.03.59c-1.95-1.66-4.18-2.95-6.6-3.8v-1.19c0-3.84-3.11-6.95-6.95-6.95s-6.95,3.11-6.95,6.95v1.19c-2.41.85-4.65,2.15-6.59,3.81l-1.03-.6c-3.33-1.92-7.58-.78-9.49,2.55-1.92,3.33-.78,7.58,2.55,9.49h0l1.03.59c-.46,2.52-.46,5.1,0,7.62l-1.03.59c-3.32,1.92-4.45,6.17-2.54,9.49h0ZM67.72,20.9c5.12,0,9.26,4.15,9.26,9.26s-4.15,9.26-9.26,9.26-9.26-4.15-9.26-9.26,4.15-9.26,9.26-9.26Z"/>
</svg>