<?xml version="1.0" encoding="UTF-8"?>
<svg id="Layer_1" xmlns="http://www.w3.org/2000/svg" version="1.1" viewBox="0 0 100 100">
  <!-- Generator: Adobe Illustrator 29.8.1, SVG Export Plug-In . SVG Version: 2.1.1 Build 2)  -->
  <defs>
    <style>
      .st0 {
        fill-rule: evenodd;
      }
    </style>
  </defs>
  <path d="M28.17,41.83c0,1.23.13,2.23.37,2.96.27.73.6,1.53,1.06,2.39.17.27.23.53.23.76,0,.33-.2.67-.63,1l-2.1,1.4c-.3.2-.6.3-.86.3-.33,0-.67-.17-1-.47-.47-.5-.86-1.03-1.2-1.56-.33-.57-.67-1.2-1.03-1.96-2.59,3.06-5.85,4.59-9.78,4.59-2.79,0-5.02-.8-6.65-2.39-1.63-1.6-2.46-3.73-2.46-6.39,0-2.83,1-5.12,3.03-6.85,2.03-1.73,4.72-2.59,8.15-2.59,1.13,0,2.29.1,3.53.27s2.49.43,3.82.73v-2.43c0-2.53-.53-4.29-1.56-5.32-1.06-1.03-2.86-1.53-5.42-1.53-1.16,0-2.36.13-3.59.43s-2.43.67-3.59,1.13c-.53.23-.93.37-1.16.43-.23.07-.4.1-.53.1-.47,0-.7-.33-.7-1.03v-1.63c0-.53.07-.93.23-1.16s.47-.47.93-.7c1.16-.6,2.56-1.1,4.19-1.5,1.63-.43,3.36-.63,5.19-.63,3.96,0,6.85.9,8.71,2.69,1.83,1.8,2.76,4.52,2.76,8.18v10.78h.07,0ZM14.67,46.88c1.1,0,2.23-.2,3.43-.6s2.26-1.13,3.16-2.13c.53-.63.93-1.33,1.13-2.13s.33-1.76.33-2.89v-1.4c-.96-.23-2-.43-3.06-.57s-2.1-.2-3.13-.2c-2.23,0-3.86.43-4.96,1.33s-1.63,2.16-1.63,3.82c0,1.56.4,2.73,1.23,3.53.8.83,1.96,1.23,3.49,1.23h.01ZM41.37,50.48c-.6,0-1-.1-1.26-.33-.27-.2-.5-.67-.7-1.3l-7.81-25.71c-.2-.67-.3-1.1-.3-1.33,0-.53.27-.83.8-.83h3.26c.63,0,1.06.1,1.3.33.27.2.47.67.67,1.3l5.59,22.02,5.19-22.02c.17-.67.37-1.1.63-1.3.27-.2.73-.33,1.33-.33h2.66c.63,0,1.06.1,1.33.33.27.2.5.67.63,1.3l5.25,22.28,5.75-22.28c.2-.67.43-1.1.67-1.3.27-.2.7-.33,1.3-.33h3.09c.53,0,.83.27.83.83,0,.17-.03.33-.07.53-.03.2-.1.47-.23.83l-8.02,25.71c-.2.67-.43,1.1-.7,1.3s-.7.33-1.26.33h-2.86c-.63,0-1.06-.1-1.33-.33s-.5-.67-.63-1.33l-5.16-21.45-5.12,21.42c-.17.67-.37,1.1-.63,1.33-.27.23-.73.33-1.33.33h-2.87,0ZM84.11,51.37c-1.73,0-3.46-.2-5.12-.6s-2.96-.83-3.82-1.33c-.53-.3-.9-.63-1.03-.93s-.2-.63-.2-.93v-1.7c0-.7.27-1.03.76-1.03.2,0,.4.03.6.1s.5.2.83.33c1.13.5,2.36.9,3.66,1.16,1.33.27,2.63.4,3.96.4,2.1,0,3.73-.37,4.86-1.1s1.73-1.8,1.73-3.16c0-.93-.3-1.7-.9-2.33s-1.73-1.2-3.36-1.73l-4.82-1.5c-2.43-.76-4.22-1.9-5.32-3.39-1.1-1.46-1.66-3.09-1.66-4.82,0-1.4.3-2.63.9-3.69s1.4-2,2.39-2.73c1-.76,2.13-1.33,3.46-1.73s2.73-.57,4.19-.57c.73,0,1.5.03,2.23.13.76.1,1.46.23,2.16.37.67.17,1.3.33,1.9.53s1.06.4,1.4.6c.47.27.8.53,1,.83.2.27.3.63.3,1.1v1.56c0,.7-.27,1.06-.76,1.06-.27,0-.7-.13-1.26-.4-1.9-.86-4.02-1.3-6.39-1.3-1.9,0-3.39.3-4.42.93s-1.56,1.6-1.56,2.96c0,.93.33,1.73,1,2.36s1.9,1.26,3.66,1.83l4.72,1.5c2.39.76,4.12,1.83,5.16,3.19,1.03,1.36,1.53,2.93,1.53,4.66,0,1.43-.3,2.73-.86,3.86-.6,1.13-1.4,2.13-2.43,2.93-1.03.83-2.26,1.43-3.69,1.86-1.5.47-3.06.7-4.76.7l-.04.02h0Z"/>
  <g>
    <path class="st0" d="M90.42,67.54c-10.94,8.08-26.84,12.37-40.51,12.37-19.16,0-36.42-7.08-49.46-18.86-1.03-.93-.1-2.2,1.13-1.46,14.1,8.18,31.5,13.14,49.49,13.14,12.14,0,25.48-2.53,37.75-7.72,1.83-.83,3.39,1.2,1.6,2.53Z"/>
    <path class="st0" d="M94.97,62.35c-1.4-1.8-9.25-.86-12.8-.43-1.06.13-1.23-.8-.27-1.5,6.25-4.39,16.53-3.13,17.73-1.66,1.2,1.5-.33,11.77-6.19,16.7-.9.76-1.76.37-1.36-.63,1.33-3.29,4.29-10.71,2.89-12.47h0Z"/>
  </g>
</svg>