<?xml version="1.0" encoding="UTF-8"?>
<svg id="Layer_1" xmlns="http://www.w3.org/2000/svg" version="1.1" viewBox="0 0 100 100">
  <!-- Generator: Adobe Illustrator 29.8.1, SVG Export Plug-In . SVG Version: 2.1.1 Build 2)  -->
  <defs>
    <style>
      .st0, .st1, .st2, .st3 {
        fill: #231f20;
      }

      .st1 {
        fill-rule: evenodd;
      }

      .st2 {
        stroke: #231f20;
      }

      .st2, .st3 {
        stroke-miterlimit: 10;
      }

      .st3 {
        stroke: #fff;
        stroke-width: 5px;
      }
    </style>
  </defs>
  <g id="Light-Logo">
    <g id="Logo">
      <g id="Icon">
        <g>
          <path class="st1" d="M94.09,37.5c1.27,6.15,1.14,12.22.1,18.04-1.06,5.91-3.21,11.49-6.27,16.55-1.22,2.01-2.56,3.95-4.04,5.8-1.47,1.83-3.06,3.57-4.79,5.2-5.05,4.78-11.18,8.59-18.3,10.75-5.63,1.77-11.32,2.43-16.88,2.05-5.85-.4-11.5-1.88-16.73-4.32l-.51.98c5.2,2.97,10.94,4.96,16.96,5.87,5.9.89,12.04.71,18.21-.66,8.01-1.87,15.13-5.53,20.96-10.56,2.02-1.74,3.87-3.66,5.53-5.71,1.67-2.06,3.18-4.27,4.45-6.6,3.17-5.75,5.19-12.15,5.76-18.79.54-6.31-.23-12.81-2.35-19.2l-2.12.57h.01Z"/>
          <path class="st1" d="M13.23,80.07c-2.33-2.55-4.41-5.37-6.14-8.45-1.68-3.01-3.02-6.27-4.02-9.72-.38-1.73-.67-3.43-.85-5.15-.7-7.03.44-13.85,2.67-20.2,1.19-3.41,2.79-6.64,4.62-9.72,2.42-4.1,5.3-7.95,8.79-11.28,5.13-4.89,11.34-8.79,18.57-11.02,5.88-1.81,11.84-2.48,17.62-1.94,4.01.37,7.95,1.25,11.65,2.72,4.19,1.66,8.04,4.07,11.49,6.93,3.41,2.81,6.38,6.17,8.88,9.89.33.49.55,1.06.96,1.48.32.33.67.46,1.05.72l1.48-.95c-.09-.47-.08-.87-.28-1.3-.26-.57-.75-1-1.13-1.48-4.08-5.14-9.13-9.3-14.77-12.44-2.4-1.34-4.91-2.47-7.46-3.44-2.84-1.08-5.76-1.97-8.76-2.6-6.85-1.43-14.09-1.54-21.36.12-7.88,1.81-14.92,5.37-20.68,10.29-4,3.42-7.45,7.45-10.03,12.01-1.93,3.41-3.34,7.11-4.28,10.94-1.68,6.88-1.71,14.17-.18,21.43.36,1.73.78,3.44,1.32,5.15.88,3.55,2.14,6.91,3.7,10.06,1.61,3.28,3.54,6.32,5.78,9.11l1.35-1.15h.03-.02Z"/>
        </g>
        <g>
          <path class="st2" d="M85.74,28.32c-.59,3.9,2.12,7.6,6.01,8.19,2.05.32,4.05-.3,5.58-1.51,1.36-1.09,2.34-2.67,2.61-4.5.59-3.9-2.12-7.6-6.01-8.19s-7.6,2.12-8.19,6.01h.01-.01Z"/>
          <path class="st1" d="M77.39,44.14s1.26-1.17,2.82-2.71c2.76-2.71,6.44-6.47,6.44-6.47l-1.22-1.42s-4.31,3.06-7.41,5.35c-1.76,1.31-3.11,2.37-3.11,2.37l2.47,2.89h.01Z"/>
        </g>
        <g id="Padlock">
          <g>
            <path class="st3" d="M42.54,78.4h27.19c1.52,0,2.75-1.24,2.75-2.75v-27.3c0-1.52-1.24-2.75-2.75-2.75H29.29c-1.52,0-2.75,1.24-2.75,2.75v16.14"/>
            <path class="st3" d="M36.38,45.59v-13.12c0-7.2,5.92-13.12,13.12-13.12s13.12,5.92,13.12,13.12v13.12"/>
          </g>
        </g>
        <g>
          <path class="st0" d="M34.21,83.01c.26-1.91,0-3.78-.64-5.45-1.44-3.75-4.84-6.64-9.07-7.2-6.14-.81-11.85,3.58-12.66,9.72-.81,6.14,3.58,11.85,9.72,12.66s11.85-3.58,12.66-9.72h-.01Z"/>
          <path class="st1" d="M46.49,60.69s-6.92,4.13-11.9,7.34c-2.82,1.82-4.95,3.35-4.95,3.35l4.42,5.65s1.99-1.71,4.43-4c4.31-4.05,10-9.78,10-9.78l-1.99-2.54h0l-.02-.02h.01Z"/>
        </g>
      </g>
    </g>
  </g>
</svg>