<?xml version="1.0" encoding="UTF-8"?>
<svg id="Capa_1" xmlns="http://www.w3.org/2000/svg" version="1.1" viewBox="0 0 512 512">
  <!-- Generator: Adobe Illustrator 29.8.1, SVG Export Plug-In . SVG Version: 2.1.1 Build 2)  -->
  <path id="Path_2520" d="M432.03,432.05h-74.09v-116.03c0-27.67-.49-63.27-38.54-63.27s-44.5,30.13-44.5,61.28v118.02h-74.06v-238.6h71.13v32.6h.99c14.51-24.79,41.47-39.59,70.17-38.54,75.1,0,88.92,49.4,88.92,113.64l-.02,130.91ZM117.25,160.82c-23.75,0-43-19.24-43-43s19.24-43,43-43,43,19.24,43,43c0,23.75-19.24,43-43,43h0M154.28,432.05h-74.16v-238.6h74.16v238.6ZM468.97,6.04H42.88c-20.13-.22-36.64,15.92-36.88,36.05v427.83c.25,20.15,16.75,36.29,36.88,36.07h426.08c20.18.25,36.76-15.89,37.03-36.07V42.06c-.3-20.18-16.88-36.32-37.03-36.05"/>
</svg>