<?xml version="1.0" encoding="UTF-8"?>
<svg id="Layer_1" xmlns="http://www.w3.org/2000/svg" version="1.1" viewBox="0 0 100 100">
  <!-- Generator: Adobe Illustrator 29.8.1, SVG Export Plug-In . SVG Version: 2.1.1 Build 2)  -->
  <path d="M0,79.16L18.48,31.89c2.6-6.67,9.02-11.05,16.17-11.05h11.14l-18.48,47.27c-2.6,6.66-9.02,11.05-16.18,11.05H0Z"/>
  <path d="M27.1,79.16l18.48-47.27c2.6-6.67,9.02-11.05,16.18-11.05h11.14l-18.48,47.27c-2.6,6.66-9.02,11.05-16.18,11.05h-11.14Z"/>
  <path d="M54.21,79.16l18.48-47.27c2.6-6.67,9.02-11.05,16.17-11.05h11.14l-18.48,47.27c-2.6,6.66-9.02,11.05-16.18,11.05h-11.14,0Z"/>
</svg>