<?xml version="1.0" encoding="UTF-8"?>
<svg id="Layer_1" xmlns="http://www.w3.org/2000/svg" version="1.1" viewBox="0 0 128 128">
  <!-- Generator: Adobe Illustrator 29.8.1, SVG Export Plug-In . SVG Version: 2.1.1 Build 2)  -->
  <path d="M128,.62v23.9c-7.96,3.17-28.11-4.76-25.76-12.25l3.64-11.65h22.12ZM110.18,24.49l-7.61,32.61c1.45,1.78,4,2.39,6.2,1.51l9.56-31.47c-2.71-.55-5.46-1.47-8.03-2.6l-.12-.06h0ZM100.84,58.69c-6.53,6.82-2.2,16.73-11.87,22.33,11.9,2.46,19.81-11.76,20.14-20.03-2.95.94-6.24.1-8.26-2.3ZM92.04,74.89c-8.65,5.01-20.72,15.64-21.8,17.66-1.61,2.99,2.51,14.46,9.03,11.53,6.84-3.23,18.36-12.71,21.12-23.18-3.35,2.21-7.41,3.36-11.9,2.43l-6.03-1.24,5.33-3.09c2.11-1.22,3.39-2.57,4.25-4.1h0ZM96.5,93c-1.09,1.35-2.25,2.63-3.47,3.86-4.27,4.28-8.99,7.56-12.75,9.34h-.02s-.02.02-.02.02c-2.24,1-4.68.77-6.49-.24-1.82-1.01-3.11-2.59-4.08-4.28-.93-1.63-1.58-3.41-1.92-5.26l-.03-.16-38.28,31.1h45.22c11.33-10.96,25.36-23.85,21.85-34.38ZM58.73,68.07c5.21-5.71,28.26-25.77,32.51-21.45,3.87,3.93,1.75,12.6-7.48,22.78-7.31,8.06-16.52,13.49-21.31,9.69-3.97-3.14-6.77-7.69-3.73-11.02ZM87.05,69.21c-.5.6-1.02,1.19-1.54,1.77-3.81,4.2-8.09,7.74-12.29,9.82-2.1,1.04-4.2,1.73-6.29,1.86-2.09.13-4.22-.38-5.92-1.72-2.21-1.75-4.16-3.87-5.21-6.38-.38-.9-.59-1.86-.63-2.83L0,117.37v10.01h25.7l41.85-34c.08-.68.29-1.35.62-1.95.36-.67.72-1.06,1.23-1.61s1.13-1.18,1.86-1.88c1.47-1.41,3.38-3.11,5.54-4.91,3.24-2.7,6.99-5.61,10.59-8,.21-1.94.1-3.91-.33-5.82ZM32.87,61.27c6.5-7.9,15.24-14.99,25.51-21.19,6.8-4.11,12.27,4.33,6.39,12.79-6.09,8.02-14.38,14.93-21.14,19.66-4.54,3.18-13.72-7.66-10.76-11.25ZM61.25,60.61c-5.28,5.56-11.18,10.29-16.25,13.85-1.95,1.37-4.4,1.14-6.29.32-1.9-.82-3.57-2.18-5-3.76-1.43-1.58-2.59-3.37-3.25-5.25-.29-.83-.49-1.75-.5-2.66L0,87.27v27.04l55.92-46.27c.28-.57.64-1.09,1.07-1.56,1.01-1.1,2.55-2.62,4.41-4.35-.02-.52-.07-1.04-.16-1.53Z"/>
</svg>