<?xml version="1.0" encoding="UTF-8"?>
<svg id="Capa_8" xmlns="http://www.w3.org/2000/svg" version="1.1" viewBox="0 0 24 24">
  <!-- Generator: Adobe Illustrator 29.8.1, SVG Export Plug-In . SVG Version: 2.1.1 Build 2)  -->
  <path d="M0,4.92v14.16c0,2.72,2.2,4.92,4.92,4.92h14.16c2.72,0,4.92-2.2,4.92-4.92V4.92c0-2.72-2.2-4.92-4.92-4.92H4.92C2.2,0,0,2.2,0,4.92ZM7.72,5.22l7.13,3.99c.08.05.1.16.03.23l-1.81,1.81c-.06.06-.15.06-.21,0l-6-6c-.09-.09-.03-.25.1-.25.26,0,.52.07.75.22h0ZM5.6,17.62V6.38c0-.24.06-.47.18-.67.05-.08.16-.1.23-.03l6.22,6.22c.06.06.06.15,0,.21l-6.22,6.22c-.07.07-.18.05-.23-.03-.11-.2-.18-.43-.18-.67h0ZM7.72,18.78c-.23.15-.49.22-.75.22h0c-.13,0-.19-.16-.1-.25l6-6c.06-.06.15-.06.21,0l1.81,1.81c.07.07.05.18-.03.23l-7.13,3.99ZM17.69,13.2l-1.74.98c-.06.03-.13.02-.17-.02l-2.05-2.05c-.06-.06-.06-.15,0-.21l2.05-2.05s.12-.06.17-.02l1.74.98c.44.25.7.7.7,1.2s-.26.95-.7,1.2h0Z"/>
</svg>