<?xml version="1.0" encoding="UTF-8"?>
<svg id="Layer_1" xmlns="http://www.w3.org/2000/svg" version="1.1" viewBox="0 0 128 128">
  <!-- Generator: Adobe Illustrator 29.8.1, SVG Export Plug-In . SVG Version: 2.1.1 Build 2)  -->
  <path d="M36.38,53.64c0,1.56.17,2.83.47,3.75.34.93.76,1.94,1.35,3.03.21.34.29.67.29.97,0,.42-.25.84-.8,1.26l-2.65,1.77c-.38.25-.76.38-1.09.38-.42,0-.84-.21-1.27-.59-.57-.61-1.07-1.27-1.52-1.98-.47-.81-.9-1.64-1.3-2.49-3.28,3.88-7.41,5.81-12.38,5.81-3.53,0-6.35-1.01-8.42-3.03-2.06-2.02-3.11-4.72-3.11-8.09,0-3.58,1.26-6.48,3.83-8.67,2.57-2.19,5.98-3.29,10.32-3.29,1.43,0,2.9.12,4.46.34,1.56.21,3.16.55,4.84.93v-3.07c0-3.2-.68-5.43-1.98-6.73-1.35-1.31-3.62-1.94-6.87-1.94-1.47,0-2.99.17-4.55.55-1.55.37-3.07.85-4.55,1.43-.68.29-1.18.46-1.47.55-.3.08-.51.12-.68.12-.59,0-.88-.42-.88-1.3v-2.06c0-.68.08-1.18.29-1.48.21-.29.59-.59,1.18-.88,1.47-.76,3.24-1.39,5.3-1.9,2.06-.55,4.25-.8,6.57-.8,5.01,0,8.67,1.14,11.03,3.41,2.32,2.27,3.49,5.73,3.49,10.36v13.64h.09ZM19.29,60.04c1.39,0,2.82-.25,4.34-.76,1.52-.51,2.86-1.43,4-2.69.67-.8,1.18-1.68,1.43-2.69.25-1.01.42-2.23.42-3.67v-1.76c-1.28-.31-2.57-.55-3.87-.72-1.31-.17-2.64-.25-3.96-.25-2.82,0-4.88.55-6.27,1.68-1.39,1.14-2.06,2.73-2.06,4.84,0,1.98.5,3.45,1.56,4.46,1.01,1.05,2.48,1.56,4.42,1.56ZM53.09,64.59c-.76,0-1.26-.12-1.6-.42-.34-.25-.63-.84-.89-1.64l-9.89-32.55c-.25-.84-.38-1.39-.38-1.69,0-.67.34-1.05,1.01-1.05h4.12c.8,0,1.35.12,1.64.42.34.25.59.84.84,1.64l7.07,27.88,6.57-27.88c.21-.84.46-1.39.8-1.64.34-.25.93-.42,1.69-.42h3.37c.8,0,1.35.12,1.68.42.34.25.63.84.8,1.64l6.65,28.21,7.28-28.21c.25-.84.55-1.39.84-1.64.34-.25.89-.42,1.64-.42h3.91c.68,0,1.06.34,1.06,1.05,0,.21-.04.42-.09.68s-.12.59-.29,1.05l-10.15,32.55c-.25.84-.55,1.39-.89,1.64-.34.25-.88.42-1.6.42h-3.62c-.8,0-1.35-.13-1.68-.42-.34-.3-.63-.84-.8-1.68l-6.53-27.16-6.49,27.12c-.21.84-.46,1.39-.8,1.68-.34.3-.93.42-1.68.42h-3.62ZM107.2,65.73c-2.19,0-4.38-.25-6.48-.76-2.11-.5-3.75-1.06-4.84-1.68-.68-.38-1.14-.8-1.31-1.18-.17-.37-.25-.77-.25-1.18v-2.15c0-.88.34-1.3.97-1.3.25,0,.5.04.76.13.25.08.63.25,1.05.42,1.49.65,3.04,1.15,4.63,1.48,1.68.34,3.32.5,5.01.5,2.65,0,4.72-.47,6.14-1.39,1.43-.93,2.19-2.27,2.19-4,0-1.18-.38-2.15-1.14-2.95-.76-.8-2.19-1.52-4.25-2.19l-6.11-1.9c-3.07-.97-5.35-2.4-6.73-4.29-1.39-1.85-2.11-3.92-2.11-6.1,0-1.77.38-3.33,1.14-4.68.75-1.35,1.79-2.53,3.03-3.45,1.26-.97,2.7-1.68,4.38-2.19,1.68-.5,3.45-.72,5.3-.72.93,0,1.89.04,2.82.17.97.12,1.85.29,2.74.46.84.21,1.64.42,2.4.68s1.35.5,1.77.76c.59.34,1.01.67,1.26,1.05.25.34.38.8.38,1.39v1.98c0,.88-.34,1.35-.97,1.35-.34,0-.88-.17-1.6-.51-2.4-1.09-5.1-1.64-8.09-1.64-2.4,0-4.29.38-5.6,1.18-1.31.8-1.98,2.02-1.98,3.75,0,1.18.42,2.19,1.26,2.99.84.8,2.4,1.6,4.63,2.32l5.98,1.9c3.03.97,5.22,2.32,6.52,4.04,1.31,1.73,1.94,3.71,1.94,5.9,0,1.81-.38,3.45-1.09,4.88-.76,1.43-1.77,2.7-3.07,3.71-1.31,1.05-2.86,1.81-4.67,2.36-1.89.59-3.88.88-6.02.88Z"/>
  <path d="M118,73.35c-4.43.06-9.66,1.05-13.62,3.83-1.22.88-1.01,2.06.34,1.89,4.51-.55,14.44-1.73,16.21.55,1.77,2.23-1.98,11.62-3.66,15.79-.5,1.26.59,1.77,1.73.8,7.41-6.23,9.35-19.24,7.83-21.14-.76-.93-4.39-1.79-8.82-1.73ZM1.63,75.86c-.93.12-1.35,1.24-.37,2.12,16.51,14.9,38.36,23.87,62.61,23.87,17.31,0,37.43-5.43,51.28-15.66,2.27-1.69.3-4.25-2.02-3.2-15.53,6.57-32.42,9.77-47.79,9.77-22.78,0-44.8-6.27-62.65-16.63-.39-.23-.75-.3-1.06-.27h0Z"/>
</svg>