<?xml version="1.0" encoding="UTF-8"?>
<svg id="Capa_1" xmlns="http://www.w3.org/2000/svg" version="1.1" viewBox="0 0 512 512">
  <!-- Generator: Adobe Illustrator 29.8.1, SVG Export Plug-In . SVG Version: 2.1.1 Build 2)  -->
  <defs>
    <style>
      .st0 {
        fill: none;
        stroke: #000;
        stroke-miterlimit: 10;
        stroke-width: 18px;
      }
    </style>
  </defs>
  <path d="M132.01,423.82c-7.03,12.3-22.7,16.44-34.99,9.42-12.3-7.03-16.44-22.7-9.42-34.99l18.27-31.62c20.66-6.39,37.43-1.48,50.74,14.55l-24.59,42.65ZM309.63,354.84H77.08c-14.19,0-25.58-11.38-25.58-25.58s11.38-25.58,25.58-25.58h65.19l83.48-144.66-26.07-45.25c-7.03-12.3-2.88-27.83,9.42-34.99,12.3-7.03,27.83-2.88,34.99,9.42l11.17,19.75,11.38-19.68c7.03-12.3,22.7-16.44,34.99-9.42,12.3,7.03,16.44,22.7,9.42,34.97l-109.67,189.85h79.34c25.67.02,40.08,30.24,28.9,51.18ZM434.92,354.98h-36.96l24.95,43.26c7.03,12.3,2.88,27.83-9.42,34.99-12.3,7.03-27.83,2.88-34.99-9.42-42-72.87-73.57-127.38-94.49-163.71-21.43-36.96-6.11-74.07,8.99-86.64,16.79,28.81,41.88,72.31,75.38,130.35h66.55c14.19,0,25.58,11.38,25.58,25.58-.02,14.19-11.38,25.58-25.58,25.58Z"/>
  <path class="st0" d="M105.5,9.5h299.65c53.73,0,97.35,43.62,97.35,97.35v298.3c0,53.73-43.62,97.35-97.35,97.35H106.85c-53.73,0-97.35-43.62-97.35-97.35V105.5C9.5,52.52,52.52,9.5,105.5,9.5Z"/>
</svg>